<svg width="140" height="30" viewBox="0 0 140 30" fill="none" xmlns="http://www.w3.org/2000/svg">
<path d="M0 29.6411H3.73206V19.5933H9.90431C16.1842 19.5933 18.8397 16.6148 18.8397 10.2632V9.54546C18.8397 3.15789 16.1124 0.358851 9.90431 0.358851H0V29.6411ZM3.73206 16.5072V3.44498H10.012C13.5646 3.44498 15 4.91627 15 8.79187V10.9809C15 14.8923 13.5646 16.5072 10.012 16.5072H3.73206Z" fill="#273D52"/>
<path d="M38.8662 29.6411H42.5982V0.358851H38.8662V13.3852H27.8494V0.358851H24.1174V29.6411H27.8494V16.6148H38.8662V29.6411Z" fill="#273D52"/>
<path d="M58.6863 30C65.4686 30 68.8418 25.4785 68.8418 19.1268V10.8373C68.8418 4.52153 65.4686 0 58.6863 0C51.8681 0 48.4949 4.52153 48.4949 10.8373V19.1268C48.4949 25.4785 51.8681 30 58.6863 30ZM52.3346 19.701V10.299C52.3346 5.88517 54.4877 3.22966 58.6863 3.22966C62.8489 3.22966 65.0021 5.88517 65.0021 10.299V19.701C65.0021 24.1507 62.8489 26.7703 58.6863 26.7703C54.4877 26.7703 52.3346 24.1507 52.3346 19.701Z" fill="#273D52"/>
<path d="M79.034 29.6411H82.7661V3.55263H90.1225V0.358851H71.6775V3.55263H79.034V29.6411Z" fill="#273D52"/>
<path d="M103.136 30C109.919 30 113.292 25.4785 113.292 19.1268V10.8373C113.292 4.52153 109.919 0 103.136 0C96.318 0 92.9448 4.52153 92.9448 10.8373V19.1268C92.9448 25.4785 96.318 30 103.136 30ZM96.7845 19.701V10.299C96.7845 5.88517 98.9377 3.22966 103.136 3.22966C107.299 3.22966 109.452 5.88517 109.452 10.299V19.701C109.452 24.1507 107.299 26.7703 103.136 26.7703C98.9377 26.7703 96.7845 24.1507 96.7845 19.701Z" fill="#273D52"/>
<path d="M119.185 29.6411H122.702V7.85885L134.508 29.6411H138.36L135.868 24.707L134.544 22.1411L122.738 0.358851H119.185V29.6411Z" fill="#273D52"/>
<circle cx="136.82" cy="2.84926" r="2.84926" fill="#B35724"/>
</svg>
